# xmcd
#
# Track frame offsets:
#	150
#	22067
#	41573
#	64373
#	85073
#	104273
#	121748
#	141329
#	160310
#	176881
#	192568
#	211693
#	232168
#	250866
#
# Disc length: 3560 seconds
#
# Revision: 2
# Processed by: cddbd v1.5.2PL0 Copyright (c) Steve Scherf et al.
# Submitted via: audiograbber 1.83.01
#
DISCID=cb0de60e
DTITLE=Various Artist - Luxury Liner - Volume 4
DYEAR=2000
DGENRE=Alternative Country
TTITLE0=Lou Ford - You Ain't Worth My Time
TTITLE1=John Train - You And Yours
TTITLE2=Bellwether - Laurentian Divide
TTITLE3=Buckeye - Dear Elaine
TTITLE4=Tandy - I Signed A Circle
TTITLE5=Fred Eaglesmith - Rodeo Boy
TTITLE6=Frog Holler - Least Most Wanted
TTITLE7=Harvest - Web Before You Walk Into It
TTITLE8=Angie McKenna - All The Pretty Horses
TTITLE9=Joaquina - Fresno
TTITLE10=Grand Drive - Jukebox
TTITLE11=Ware River Club - Akron
TTITLE12=Dolly Varden - Too Good To Believe
TTITLE13=The Mertons - Guess I'd Better Leave
EXTD=
EXTT0=
EXTT1=
EXTT2=
EXTT3=
EXTT4=
EXTT5=
EXTT6=
EXTT7=
EXTT8=
EXTT9=
EXTT10=
EXTT11=
EXTT12=
EXTT13=
PLAYORDER=
